# 3ds Max Wavefront OBJ Exporter v0.97b - (c)2007 guruware
# File Created: 30.06.2019 15:46:11

mtllib Fangjiao.mtl

#
# object fangjiao
#

v  -130.5003 1.0934 -11.8117
v  -130.4743 1.1037 -10.9801
v  -130.4743 -1.0987 -10.9801
v  -130.5003 -1.0784 -11.8117
v  -131.9958 1.0502 -11.2993
v  -133.5634 1.1256 -10.6711
v  -130.5424 1.0838 -10.1484
v  -130.5375 1.0519 -9.3167
v  -133.6046 1.1256 -6.3940
v  -136.6471 1.0309 -7.5684
v  -135.1104 1.0679 -10.0316
v  -136.6471 0.9771 -9.4018
v  -135.1254 1.0842 -6.9592
v  -130.5807 1.0655 -5.9900
v  -130.5003 1.1256 -5.1584
v  -132.0370 1.0544 -5.6931
v  -130.5003 1.1561 -7.6534
v  -130.4309 1.1256 -6.8217
v  -130.4840 1.0970 -8.4851
v  -131.9958 -1.0691 -11.2546
v  -130.5235 -1.1006 -7.6534
v  -130.5003 -1.1072 -6.8217
v  -130.5400 -1.0852 -5.9900
v  -130.5375 -1.0918 -9.3167
v  -130.5424 -1.1256 -10.1484
v  -135.1104 -1.1086 -9.9580
v  -135.1254 -1.0523 -7.0396
v  -132.0370 -1.0797 -5.7718
v  -130.5003 -1.0599 -5.1584
v  -133.6046 -1.1256 -6.3243
v  -136.6471 -1.0071 -9.4018
v  -136.6471 -1.0835 -7.5684
v  -133.5634 -1.1256 -10.6056
v  -130.4840 -1.1256 -8.4851
v  -142.7939 -1.0702 -5.1584
v  -142.7939 1.1075 -5.1584
v  -142.7667 1.1165 -5.9900
v  -142.7702 -1.0979 -5.9900
v  -141.2572 -1.1701 -5.7583
v  -141.2572 1.0498 -5.7609
v  -139.7205 1.0782 -6.3005
v  -138.1838 0.9801 -6.9659
v  -139.7205 1.0211 -10.5673
v  -138.1838 1.0628 -10.0043
v  -142.8249 1.1256 -7.6534
v  -142.7352 1.0690 -10.1484
v  -142.7939 1.0812 -11.8117
v  -141.2572 1.1188 -11.2542
v  -142.8274 1.1256 -10.9801
v  -142.7886 1.1256 -9.3167
v  -142.9195 1.1029 -8.4851
v  -142.8624 1.0645 -6.8217
v  -141.2572 -1.0316 -11.3063
v  -142.7939 -1.0812 -11.8117
v  -142.7904 -1.1164 -10.9801
v  -142.8107 -1.0695 -9.3167
v  -142.6553 -1.0935 -6.8217
v  -139.7205 -1.0932 -10.6067
v  -138.1838 -0.9996 -9.9573
v  -139.7205 -1.0567 -6.3634
v  -138.1838 -1.0638 -6.9246
v  -142.7939 -1.1256 -8.4851
v  -142.7717 -1.0873 -7.6534
v  -142.8968 -1.1256 -10.1484
# 64 vertices

vn 0.9995 0.0000 -0.0312
vn 0.9997 0.0000 0.0253
vn 0.9996 0.0000 0.0265
vn -0.0106 0.9999 -0.0036
vn 0.0029 1.0000 -0.0002
vn -0.3579 -0.0169 -0.9336
vn -0.3366 -0.0098 -0.9416
vn -0.3581 -0.0170 -0.9335
vn -0.0067 -1.0000 0.0009
vn 0.0014 -1.0000 -0.0054
vn 0.0016 -1.0000 -0.0055
vn -0.3495 -0.0171 0.9368
vn -0.3605 -0.0094 0.9327
vn -0.3608 -0.0092 0.9326
vn 0.9973 0.0094 -0.0725
vn 0.9997 0.0012 0.0227
vn 0.9998 0.0014 0.0210
vn -0.9995 0.0008 -0.0306
vn -0.9995 -0.0224 -0.0206
vn -0.9995 -0.0231 -0.0203
vn 0.3644 0.0005 0.9313
vn 0.3571 -0.0061 0.9341
vn 0.0165 0.9999 0.0033
vn 0.3266 0.0114 -0.9451
vn 0.3700 0.0155 -0.9289
vn 0.3701 0.0155 -0.9289
vn 0.0095 -0.9999 -0.0116
vn -0.9998 -0.0084 -0.0180
vn -0.9999 0.0102 -0.0126
vn -0.9999 0.0098 -0.0127
vn 0.9996 -0.0139 0.0248
vn 0.9995 -0.0137 0.0273
vn 0.9999 -0.0128 -0.0109
vn 0.9998 -0.0130 -0.0117
vn 0.9992 0.0000 0.0391
vn 0.9994 0.0000 -0.0353
vn 0.9994 0.0000 -0.0351
vn 0.9993 0.0000 0.0384
vn 0.9994 -0.0052 0.0338
vn 0.9979 0.0000 -0.0642
vn -0.3694 -0.0098 0.9292
vn -0.3794 -0.0021 0.9252
vn -0.3797 -0.0021 0.9251
vn -0.3699 -0.0096 0.9290
vn 0.0058 -0.0049 1.0000
vn 0.0146 -0.0046 0.9999
vn -0.3728 -0.0232 -0.9276
vn -0.3804 -0.0262 -0.9244
vn -0.3805 -0.0262 -0.9244
vn -0.3725 -0.0231 -0.9277
vn -0.0180 -0.0148 -0.9997
vn -0.0104 -0.0147 -0.9998
vn 0.3597 -0.0090 0.9330
vn 0.3731 0.0022 0.9278
vn 0.3902 0.0092 -0.9207
vn 0.3599 -0.0061 -0.9330
vn 0.3904 0.0093 -0.9206
vn -0.9984 -0.0530 0.0175
vn -0.9971 -0.0495 0.0585
vn -0.9971 -0.0496 0.0584
vn -0.9984 -0.0530 0.0173
vn -0.9994 0.0349 0.0046
vn -0.9994 0.0348 0.0044
vn -0.9996 0.0091 -0.0266
vn -0.9996 0.0087 -0.0272
vn -0.9973 -0.0234 -0.0696
vn -0.9966 -0.0401 0.0715
# 67 vertex normals

vt 0.7323 0.9428 0.0000
vt 0.7333 0.8754 0.0000
vt 0.9440 0.8754 0.0000
vt 0.9430 0.9428 0.0000
vt 0.0163 0.9212 0.0000
vt 0.0450 0.8532 0.0000
vt 0.0737 0.7852 0.0000
vt 0.0968 0.9239 0.0000
vt 0.1371 0.9253 0.0000
vt 0.2843 0.7887 0.0000
vt 0.2302 0.6452 0.0000
vt 0.1024 0.7172 0.0000
vt 0.1312 0.6492 0.0000
vt 0.2573 0.7170 0.0000
vt 0.2982 0.9308 0.0000
vt 0.3384 0.9322 0.0000
vt 0.3114 0.8604 0.0000
vt 0.2176 0.9281 0.0000
vt 0.2579 0.9294 0.0000
vt 0.1773 0.9267 0.0000
vt 0.0565 0.9225 0.0000
vt 0.1531 0.2891 0.0000
vt 0.0430 0.2945 0.0000
vt 0.0331 0.0568 0.0000
vt 0.1484 0.0542 0.0000
vt 0.4917 0.9416 0.0000
vt 0.4495 0.9434 0.0000
vt 0.4073 0.9453 0.0000
vt 0.5761 0.9379 0.0000
vt 0.6183 0.9361 0.0000
vt 0.6127 0.7266 0.0000
vt 0.4514 0.7320 0.0000
vt 0.3938 0.8754 0.0000
vt 0.3650 0.9471 0.0000
vt 0.4226 0.8037 0.0000
vt 0.5827 0.6580 0.0000
vt 0.4803 0.6603 0.0000
vt 0.6605 0.9342 0.0000
vt 0.6727 0.8638 0.0000
vt 0.6427 0.7952 0.0000
vt 0.7027 0.9324 0.0000
vt 0.5339 0.9397 0.0000
vt 0.0340 0.0579 0.0000
vt 0.0431 0.2951 0.0000
vt 0.1534 0.2897 0.0000
vt 0.1486 0.0552 0.0000
vt 0.9510 0.4037 0.0000
vt 0.9500 0.4711 0.0000
vt 0.7393 0.4711 0.0000
vt 0.7403 0.4037 0.0000
vt 0.9655 0.0877 0.0000
vt 0.8473 0.0776 0.0000
vt 0.8331 0.3102 0.0000
vt 0.9493 0.3224 0.0000
vt 0.3096 0.4454 0.0000
vt 0.2832 0.5120 0.0000
vt 0.2567 0.5786 0.0000
vt 0.0718 0.5092 0.0000
vt 0.1015 0.5792 0.0000
vt 0.2147 0.3752 0.0000
vt 0.0934 0.3716 0.0000
vt 0.0125 0.3692 0.0000
vt 0.0422 0.4392 0.0000
vt 0.0530 0.3704 0.0000
vt 0.1339 0.3728 0.0000
vt 0.1743 0.3740 0.0000
vt 0.2956 0.3776 0.0000
vt 0.2552 0.3764 0.0000
vt 0.3361 0.3788 0.0000
vt 0.9490 0.3224 0.0000
vt 0.8327 0.3100 0.0000
vt 0.8479 0.0774 0.0000
vt 0.9658 0.0877 0.0000
vt 0.6514 0.3864 0.0000
vt 0.6923 0.3864 0.0000
vt 0.6649 0.4543 0.0000
vt 0.5695 0.3864 0.0000
vt 0.4467 0.3864 0.0000
vt 0.6375 0.5222 0.0000
vt 0.6101 0.5901 0.0000
vt 0.4225 0.5234 0.0000
vt 0.4514 0.5918 0.0000
vt 0.3648 0.3864 0.0000
vt 0.3937 0.4549 0.0000
vt 0.4058 0.3864 0.0000
vt 0.5286 0.3864 0.0000
vt 0.4876 0.3864 0.0000
vt 0.6104 0.3864 0.0000
vt 0.7383 0.5384 0.0000
vt 0.9490 0.5384 0.0000
vt 0.9480 0.6058 0.0000
vt 0.7373 0.6058 0.0000
vt 0.7343 0.8080 0.0000
vt 0.7353 0.7406 0.0000
vt 0.9460 0.7406 0.0000
vt 0.9450 0.8080 0.0000
vt 0.9470 0.6732 0.0000
vt 0.7363 0.6732 0.0000
vt 0.3779 0.0499 0.0000
vt 0.2633 0.0526 0.0000
vt 0.2637 0.2844 0.0000
vt 0.3740 0.2790 0.0000
vt 0.4843 0.2736 0.0000
vt 0.4926 0.0473 0.0000
vt 0.3734 0.2782 0.0000
vt 0.2633 0.2836 0.0000
vt 0.2637 0.0516 0.0000
vt 0.3790 0.0490 0.0000
vt 0.4943 0.0464 0.0000
vt 0.4836 0.2727 0.0000
vt 0.7290 0.0675 0.0000
vt 0.6108 0.0574 0.0000
vt 0.6006 0.2858 0.0000
vt 0.7168 0.2980 0.0000
vt 0.7163 0.2976 0.0000
vt 0.5999 0.2852 0.0000
vt 0.6122 0.0568 0.0000
vt 0.7301 0.0671 0.0000
# 118 texture coords

g fangjiao
usemtl lambert4SG
s 1
f 1/1/1 2/2/2 3/3/3 4/4/1 
s 2
f 1/5/4 5/6/4 6/7/4 7/8/4 
f 8/9/4 7/8/4 6/7/4 9/10/4 
f 10/11/5 9/10/4 6/7/4 11/12/4 
f 11/12/4 12/13/5 10/11/5 
f 10/11/5 13/14/4 9/10/4 
f 14/15/4 8/9/4 9/10/4 15/16/4 
f 9/10/4 16/17/4 15/16/4 
f 17/18/4 8/9/4 14/15/4 18/19/4 
f 17/18/4 19/20/4 8/9/4 
f 1/5/4 7/8/4 2/21/4 
s 3
f 5/22/6 1/23/7 4/24/7 20/25/8 
s 4
f 21/26/9 22/27/9 23/28/9 24/29/9 
f 25/30/9 24/29/9 23/28/9 26/31/9 
f 27/32/9 26/31/9 23/28/9 28/33/9 
f 23/28/9 29/34/9 28/33/9 
f 28/33/9 30/35/9 27/32/9 
f 31/36/10 26/31/9 27/32/9 32/37/11 
f 3/38/9 25/30/9 26/31/9 20/39/9 
f 26/31/9 33/40/9 20/39/9 
f 20/39/9 4/41/9 3/38/9 
f 21/26/9 24/29/9 34/42/9 
s 5
f 29/43/12 15/44/12 16/45/13 28/46/14 
s 6
f 29/47/15 23/48/16 14/49/17 15/50/15 
s 7
f 35/50/18 36/47/18 37/48/19 38/49/20 
s 5
f 35/51/21 39/52/22 40/53/22 36/54/21 
s 2
f 40/55/23 41/56/23 42/57/23 43/58/23 
f 12/13/5 43/58/23 42/57/23 10/11/5 
f 12/13/5 44/59/23 43/58/23 
f 45/60/23 40/55/23 43/58/23 46/61/23 
f 47/62/23 46/61/23 43/58/23 48/63/23 
f 47/62/23 49/64/23 46/61/23 
f 45/60/23 46/61/23 50/65/23 51/66/23 
f 37/67/23 40/55/23 45/60/23 52/68/23 
f 40/55/23 37/67/23 36/69/23 
s 3
f 47/70/24 48/71/25 53/72/26 54/73/24 
s 4
f 55/74/27 54/75/27 53/76/27 56/77/27 
f 57/78/27 56/77/27 53/76/27 32/37/11 
f 32/37/11 53/76/27 58/79/27 59/80/27 
f 59/80/27 31/36/10 32/37/11 
f 60/81/27 57/78/27 32/37/11 61/82/27 
f 35/83/27 57/78/27 60/81/27 39/84/27 
f 35/83/27 38/85/27 57/78/27 
f 62/86/27 56/77/27 57/78/27 63/87/27 
f 55/74/27 56/77/27 64/88/27 
s 10
f 54/1/28 55/2/29 49/3/30 47/4/28 
s 6
f 18/89/31 22/90/32 21/91/33 17/92/34 
s 1
f 7/93/35 8/94/36 24/95/37 25/96/38 
s 6
f 14/49/17 23/48/16 22/90/32 18/89/31 
f 21/91/33 34/97/39 19/98/39 17/92/34 
s 1
f 8/94/36 19/98/40 34/97/40 24/95/37 
f 3/3/3 2/2/2 7/93/35 25/96/38 
s 5
f 27/99/41 30/100/42 9/101/43 13/102/44 
f 30/100/42 28/46/14 16/45/13 9/101/43 
f 27/99/41 13/102/44 10/103/45 32/104/46 
s 3
f 11/105/47 6/106/48 33/107/49 26/108/50 
f 11/105/47 26/108/50 31/109/51 12/110/52 
f 5/22/6 20/25/8 33/107/49 6/106/48 
s 5
f 60/111/53 61/112/54 42/113/54 41/114/53 
f 60/111/53 41/114/53 40/53/22 39/52/22 
f 32/104/46 10/103/45 42/113/54 61/112/54 
s 3
f 43/115/55 44/116/56 59/117/56 58/118/57 
f 43/115/55 58/118/57 53/72/26 48/71/25 
f 12/110/52 31/109/51 59/117/56 44/116/56 
s 7
f 52/90/58 45/91/59 63/92/60 57/89/61 
s 10
f 46/96/62 64/93/63 56/94/64 50/95/65 
f 55/2/29 64/93/63 46/96/62 49/3/30 
f 56/94/64 62/98/66 51/97/66 50/95/65 
s 7
f 63/92/60 45/91/59 51/97/67 62/98/67 
f 38/49/20 37/48/19 52/90/58 57/89/61 
# 54 polygons - 16 triangles

