# 3ds Max Wavefront OBJ Exporter v0.97b - (c)2007 guruware
# File Created: 28.06.2019 14:16:38

mtllib Changchi.mtl

#
# object Cylinder001
#

v  94.8403 90.6372 3.1463
v  94.8403 90.7673 3.0519
v  -91.4210 90.7672 3.0518
v  -91.4210 90.6372 3.1463
v  94.8403 90.9393 2.9753
v  -91.4210 90.9392 2.9752
v  94.8403 91.1234 2.9361
v  -91.4210 91.1234 2.9361
v  94.8403 91.3117 2.9361
v  -91.4210 91.3117 2.9361
v  94.8403 91.4959 2.9753
v  -91.4210 91.4959 2.9752
v  94.8403 91.6679 3.0519
v  -91.4210 91.6679 3.0518
v  94.8403 91.8202 3.1625
v  -91.4210 91.8202 3.1625
v  94.8403 91.9462 3.3025
v  -91.4210 91.9462 3.3024
v  94.8403 92.0404 3.4655
v  -91.4210 92.0404 3.4655
v  94.8403 92.0986 3.6446
v  -91.4210 92.0985 3.6446
v  94.8403 92.1182 3.8319
v  -91.4210 92.1182 3.8318
v  94.8403 92.1014 3.9917
v  -91.4210 92.1014 3.9917
v  -91.4210 90.5945 -0.6944
v  -91.4210 90.6159 -0.6706
v  94.8403 90.6160 -0.6705
v  94.8403 90.5945 -0.6943
v  -91.4210 90.7683 -0.5599
v  94.8403 90.7683 -0.5599
v  -91.4210 90.9403 -0.4833
v  94.8403 90.9403 -0.4833
v  -91.4210 91.1244 -0.4442
v  94.8403 91.1245 -0.4441
v  -91.4210 91.3127 -0.4442
v  94.8403 91.3128 -0.4441
v  -91.4210 91.4969 -0.4833
v  94.8403 91.4969 -0.4833
v  -91.4210 91.6689 -0.5599
v  94.8403 91.6689 -0.5599
v  -91.4210 91.8213 -0.6706
v  94.8403 91.8213 -0.6705
v  -91.4210 91.9472 -0.8105
v  94.8403 91.9473 -0.8105
v  -91.4210 92.0414 -0.9736
v  94.8403 92.0414 -0.9735
v  -91.4210 92.0996 -1.1527
v  94.8403 92.0996 -1.1526
v  -91.4210 92.1193 -1.3399
v  94.8403 92.1193 -1.3399
v  94.8403 92.1001 -1.5220
v  -91.4210 92.1001 -1.5220
v  -91.4210 95.1283 0.5333
v  94.8403 95.1283 0.5333
v  94.8403 95.1657 0.5254
v  -91.4210 95.1657 0.5253
v  -91.4210 94.9563 0.6099
v  94.8403 94.9563 0.6099
v  -91.4210 94.8039 0.7206
v  94.8403 94.8040 0.7206
v  -91.4210 94.6780 0.8605
v  94.8403 94.6780 0.8605
v  -91.4210 94.5838 1.0235
v  94.8403 94.5838 1.0236
v  -91.4210 94.5256 1.2026
v  94.8403 94.5257 1.2027
v  -91.4210 94.5059 1.3899
v  94.8403 94.5060 1.3899
v  -91.4210 94.5256 1.5771
v  94.8403 94.5257 1.5772
v  -91.4210 94.5838 1.7562
v  94.8403 94.5838 1.7563
v  -91.4210 94.6780 1.9193
v  94.8403 94.6780 1.9193
v  -91.4210 94.8039 2.0592
v  94.8403 94.8040 2.0593
v  -91.4210 94.9563 2.1699
v  94.8403 94.9563 2.1699
v  -91.4210 95.1283 2.2465
v  94.8403 95.1283 2.2465
v  94.8403 95.1676 2.2549
v  -91.4210 95.1676 2.2548
v  94.8403 95.1616 -3.2048
v  94.8403 95.0378 -2.9953
v  94.8403 92.2320 -1.4530
v  94.8403 95.0416 0.4250
v  94.8403 94.9753 0.4636
v  94.8403 94.8940 0.5020
v  94.8403 94.7206 0.6280
v  94.8403 94.5771 0.7873
v  94.8403 94.4700 0.9729
v  94.8403 94.4037 1.1767
v  94.8403 94.3813 1.3899
v  94.8403 94.4037 1.6031
v  94.8403 94.4700 1.8070
v  94.8403 94.5771 1.9926
v  94.8403 94.7206 2.1519
v  94.8403 94.8940 2.2779
v  94.8403 94.9991 2.3299
v  94.8403 95.0438 2.3553
v  94.8403 95.1715 5.7642
v  94.8403 95.0473 5.5493
v  94.8403 92.2332 3.9246
v  94.8403 92.2429 3.8319
v  94.8403 92.2205 3.6187
v  94.8403 92.1543 3.4148
v  94.8403 92.0471 3.2292
v  94.8403 91.9037 3.0699
v  94.8403 91.7302 2.9439
v  94.8403 91.5344 2.8567
v  94.8403 91.3248 2.8121
v  94.8403 91.1104 2.8121
v  94.8403 90.9007 2.8567
v  94.8403 90.7049 2.9439
v  94.8403 90.6295 2.9987
v  94.8403 87.2086 1.1668
v  94.8403 87.4612 1.1695
v  94.8403 90.5681 -0.5384
v  94.8403 90.6137 -0.5154
v  94.8403 90.7059 -0.4519
v  94.8403 90.9018 -0.3647
v  94.8403 91.1114 -0.3202
v  94.8403 91.3258 -0.3202
v  94.8403 91.5355 -0.3647
v  94.8403 91.7313 -0.4519
v  94.8403 91.9047 -0.5779
v  94.8403 92.0481 -0.7372
v  94.8403 92.1553 -0.9228
v  94.8403 92.2215 -1.1267
v  94.8403 92.2439 -1.3399
v  -91.4210 95.1715 5.7642
v  -91.4210 95.0473 5.5493
v  -91.4210 92.2331 3.9246
v  -91.4210 95.0437 2.3552
v  -91.4210 95.0060 2.3348
v  -91.4210 94.8940 2.2778
v  -91.4210 94.7205 2.1518
v  -91.4210 94.5771 1.9926
v  -91.4210 94.4699 1.8069
v  -91.4210 94.4037 1.6031
v  -91.4210 94.3813 1.3899
v  -91.4210 94.4037 1.1767
v  -91.4210 94.4699 0.9728
v  -91.4210 94.5771 0.7872
v  -91.4210 94.7205 0.6279
v  -91.4210 94.8939 0.5019
v  -91.4210 95.0198 0.4526
v  -91.4210 95.0698 0.4076
v  -91.4210 95.1616 -3.2048
v  -91.4210 95.0378 -2.9953
v  -91.4210 92.2320 -1.4530
v  -91.4210 92.2439 -1.3399
v  -91.4210 92.2215 -1.1267
v  -91.4210 92.1553 -0.9229
v  -91.4210 92.0481 -0.7372
v  -91.4210 91.9047 -0.5780
v  -91.4210 91.7313 -0.4520
v  -91.4210 91.5354 -0.3648
v  -91.4210 91.3258 -0.3202
v  -91.4210 91.1114 -0.3202
v  -91.4210 90.9017 -0.3648
v  -91.4210 90.7059 -0.4520
v  -91.4210 90.6013 -0.5259
v  -91.4210 90.5681 -0.5384
v  -91.4210 87.2086 1.1668
v  -91.4210 87.4611 1.1694
v  -91.4210 90.6294 2.9987
v  -91.4210 90.7049 2.9439
v  -91.4210 90.9007 2.8567
v  -91.4210 91.1104 2.8121
v  -91.4210 91.3247 2.8121
v  -91.4210 91.5344 2.8567
v  -91.4210 91.7302 2.9439
v  -91.4210 91.9036 3.0698
v  -91.4210 92.0471 3.2291
v  -91.4210 92.1542 3.4148
v  -91.4210 92.2205 3.6186
v  -91.4210 92.2429 3.8318
# 180 vertices

vn -0.0000 0.5878 0.8090
vn -0.0000 0.5000 0.8660
vn -0.0000 0.3090 0.9511
vn -0.0000 0.1045 0.9945
vn -0.0000 -0.1045 0.9945
vn -0.0000 -0.3090 0.9511
vn -0.0000 -0.5000 0.8660
vn -0.0000 -0.6691 0.7431
vn -0.0000 -0.8090 0.5878
vn 0.0000 -0.9135 0.4067
vn 0.0000 -0.9781 0.2079
vn 0.0000 -1.0000 0.0000
vn 0.0000 -0.9945 -0.1045
vn 0.0000 0.7431 -0.6691
vn 0.0000 0.6691 -0.7431
vn 0.0000 0.5000 -0.8660
vn 0.0000 0.3090 -0.9511
vn 0.0000 0.1045 -0.9945
vn 0.0000 -0.1045 -0.9945
vn 0.0000 -0.3090 -0.9511
vn 0.0000 -0.5000 -0.8660
vn 0.0000 -0.6691 -0.7431
vn 0.0000 -0.8090 -0.5878
vn 0.0000 -0.9135 -0.4067
vn 0.0000 -0.9781 -0.2079
vn 0.0000 -0.9945 0.1045
vn -0.0000 0.2079 0.9781
vn -0.0000 0.6691 0.7431
vn -0.0000 0.8090 0.5878
vn -0.0000 0.9135 0.4067
vn -0.0000 0.9781 0.2079
vn -0.0000 1.0000 -0.0000
vn -0.0000 0.9781 -0.2079
vn -0.0000 0.9135 -0.4067
vn 0.0000 0.8090 -0.5878
vn 0.0000 0.2079 -0.9781
vn 1.0000 0.0000 0.0001
vn 1.0000 -0.0001 0.0000
vn 1.0000 0.0000 0.0000
vn 1.0000 -0.0001 -0.0000
vn 1.0000 0.0000 -0.0001
vn -1.0000 -0.0000 -0.0000
vn -0.0000 1.0000 -0.0011
vn 0.0000 -0.4817 -0.8763
# 44 vertex normals

vt 0.0533 0.9034 1.0000
vt 0.0533 0.9051 1.0000
vt 0.9664 0.9052 1.0000
vt 0.9664 0.9035 1.0000
vt 0.0533 0.9071 1.0000
vt 0.9664 0.9072 1.0000
vt 0.0533 0.9090 1.0000
vt 0.9664 0.9091 1.0000
vt 0.0533 0.9110 1.0000
vt 0.9664 0.9111 1.0000
vt 0.0533 0.9130 1.0000
vt 0.9664 0.9131 1.0000
vt 0.0533 0.9149 1.0000
vt 0.9664 0.9150 1.0000
vt 0.0533 0.9169 1.0000
vt 0.9664 0.9170 1.0000
vt 0.0533 0.9189 1.0000
vt 0.9664 0.9190 1.0000
vt 0.0533 0.9208 1.0000
vt 0.9664 0.9209 1.0000
vt 0.0533 0.9228 1.0000
vt 0.9664 0.9229 1.0000
vt 0.0533 0.9248 1.0000
vt 0.9664 0.9249 1.0000
vt 0.0533 0.9264 1.0000
vt 0.9664 0.9265 1.0000
vt 0.9659 0.7681 1.0000
vt 0.9659 0.7678 1.0000
vt 0.0460 0.7609 1.0000
vt 0.0460 0.7612 1.0000
vt 0.9659 0.7659 1.0000
vt 0.0460 0.7589 1.0000
vt 0.9659 0.7639 1.0000
vt 0.0460 0.7570 1.0000
vt 0.9659 0.7620 1.0000
vt 0.0460 0.7551 1.0000
vt 0.9659 0.7600 1.0000
vt 0.0460 0.7531 1.0000
vt 0.9659 0.7581 1.0000
vt 0.0460 0.7512 1.0000
vt 0.9660 0.7562 1.0000
vt 0.0460 0.7492 1.0000
vt 0.9660 0.7542 1.0000
vt 0.0460 0.7473 1.0000
vt 0.9660 0.7523 1.0000
vt 0.0460 0.7453 1.0000
vt 0.9660 0.7503 1.0000
vt 0.0460 0.7434 1.0000
vt 0.9661 0.7503 1.0000
vt 0.9661 0.7483 1.0000
vt 0.0460 0.7413 1.0000
vt 0.9661 0.7462 1.0000
vt 0.0460 0.7392 1.0000
vt 0.0460 0.7372 1.0000
vt 0.9661 0.7442 1.0000
vt 0.9677 0.5915 1.0000
vt 0.0464 0.5882 1.0000
vt 0.0464 0.5886 1.0000
vt 0.9677 0.5919 1.0000
vt 0.9677 0.5897 1.0000
vt 0.0464 0.5864 1.0000
vt 0.9677 0.5878 1.0000
vt 0.0464 0.5845 1.0000
vt 0.9677 0.5860 1.0000
vt 0.0464 0.5827 1.0000
vt 0.9677 0.5841 1.0000
vt 0.0464 0.5808 1.0000
vt 0.9677 0.5823 1.0000
vt 0.0464 0.5789 1.0000
vt 0.9677 0.5804 1.0000
vt 0.0465 0.5771 1.0000
vt 0.9677 0.5785 1.0000
vt 0.0465 0.5752 1.0000
vt 0.9677 0.5767 1.0000
vt 0.0465 0.5734 1.0000
vt 0.9677 0.5748 1.0000
vt 0.0465 0.5715 1.0000
vt 0.9677 0.5730 1.0000
vt 0.0465 0.5697 1.0000
vt 0.9677 0.5711 1.0000
vt 0.0465 0.5678 1.0000
vt 0.9677 0.5693 1.0000
vt 0.0465 0.5659 1.0000
vt 0.0465 0.5655 1.0000
vt 0.9677 0.5689 1.0000
vt 0.6234 0.3216 -0.5000
vt 0.5894 0.4315 0.5000
vt 0.5895 0.4226 -0.5000
vt 0.6206 0.3218 -0.5000
vt 0.5544 0.3128 -0.5000
vt 0.5573 0.3137 -0.5000
vt 0.5549 0.3118 -0.5000
vt 0.5580 0.3112 -0.5000
vt 0.5570 0.3062 -0.5000
vt 0.5590 0.3085 -0.5000
vt 0.5584 0.2999 -0.5000
vt 0.5606 0.3013 -0.5000
vt 0.5592 0.2931 -0.5000
vt 0.5615 0.2936 -0.5000
vt 0.5592 0.2862 -0.5000
vt 0.5615 0.2857 -0.5000
vt 0.5584 0.2794 -0.5000
vt 0.5606 0.2780 -0.5000
vt 0.5570 0.2731 -0.5000
vt 0.5590 0.2708 -0.5000
vt 0.5549 0.2675 -0.5000
vt 0.5566 0.2644 -0.5000
vt 0.5523 0.2628 -0.5000
vt 0.5537 0.2591 -0.5000
vt 0.5492 0.2594 -0.5000
vt 0.5502 0.2552 -0.5000
vt 0.5459 0.2572 -0.5000
vt 0.5464 0.2527 -0.5000
vt 0.5424 0.2565 -0.5000
vt 0.5424 0.2519 -0.5000
vt 0.5388 0.2572 -0.5000
vt 0.5402 0.2522 -0.5000
vt 0.5381 0.2577 -0.5000
vt 0.5392 0.2522 -0.5000
vt 0.5052 0.1459 0.5000
vt 0.5092 0.1505 -0.5000
vt 0.5716 0.1459 -0.5000
vt 0.5701 0.1505 -0.5000
vt 0.5729 0.1513 -0.5000
vt 0.5708 0.1536 -0.5000
vt 0.5749 0.1569 -0.5000
vt 0.5732 0.1600 -0.5000
vt 0.5776 0.1616 -0.5000
vt 0.5762 0.1653 -0.5000
vt 0.5806 0.1650 -0.5000
vt 0.5797 0.1692 -0.5000
vt 0.5840 0.1672 -0.5000
vt 0.5835 0.1717 -0.5000
vt 0.5875 0.1679 -0.5000
vt 0.5875 0.1725 -0.5000
vt 0.5910 0.1672 -0.5000
vt 0.5915 0.1717 -0.5000
vt 0.5944 0.1650 -0.5000
vt 0.5953 0.1692 -0.5000
vt 0.5974 0.1616 -0.5000
vt 0.5988 0.1653 -0.5000
vt 0.6000 0.1569 -0.5000
vt 0.6018 0.1600 -0.5000
vt 0.6021 0.1513 -0.5000
vt 0.6041 0.1536 -0.5000
vt 0.6033 0.1459 -0.5000
vt 0.6049 0.1505 -0.5000
vt 0.6776 0.1459 0.5000
vt 0.6735 0.1505 -0.5000
vt 0.6401 0.2675 -0.5000
vt 0.6390 0.2621 -0.5000
vt 0.6395 0.2672 -0.5000
vt 0.6381 0.2622 -0.5000
vt 0.6360 0.2664 -0.5000
vt 0.6360 0.2619 -0.5000
vt 0.6325 0.2672 -0.5000
vt 0.6320 0.2627 -0.5000
vt 0.6291 0.2693 -0.5000
vt 0.6282 0.2651 -0.5000
vt 0.6260 0.2728 -0.5000
vt 0.6247 0.2691 -0.5000
vt 0.6234 0.2774 -0.5000
vt 0.6217 0.2743 -0.5000
vt 0.6213 0.2830 -0.5000
vt 0.6193 0.2807 -0.5000
vt 0.6199 0.2893 -0.5000
vt 0.6177 0.2879 -0.5000
vt 0.6192 0.2961 -0.5000
vt 0.6168 0.2956 -0.5000
vt 0.6192 0.3030 -0.5000
vt 0.6168 0.3035 -0.5000
vt 0.6199 0.3098 -0.5000
vt 0.6177 0.3112 -0.5000
vt 0.6213 0.3162 -0.5000
vt 0.6193 0.3184 -0.5000
vt 0.6199 0.1205 0.5000
vt 0.5255 0.1205 0.5000
vt 0.5312 0.1253 0.5000
vt 0.6177 0.1253 0.5000
vt 0.5723 0.2388 0.5000
vt 0.5738 0.2330 0.5000
vt 0.5733 0.2383 0.5000
vt 0.5750 0.2330 0.5000
vt 0.5783 0.2376 0.5000
vt 0.5783 0.2327 0.5000
vt 0.5833 0.2383 0.5000
vt 0.5840 0.2336 0.5000
vt 0.5880 0.2406 0.5000
vt 0.5894 0.2362 0.5000
vt 0.5924 0.2443 0.5000
vt 0.5943 0.2403 0.5000
vt 0.5961 0.2492 0.5000
vt 0.5986 0.2459 0.5000
vt 0.5991 0.2551 0.5000
vt 0.6019 0.2527 0.5000
vt 0.6011 0.2618 0.5000
vt 0.6042 0.2603 0.5000
vt 0.6021 0.2690 0.5000
vt 0.6054 0.2685 0.5000
vt 0.6021 0.2763 0.5000
vt 0.6054 0.2768 0.5000
vt 0.6011 0.2835 0.5000
vt 0.6042 0.2850 0.5000
vt 0.5991 0.2902 0.5000
vt 0.6019 0.2926 0.5000
vt 0.5961 0.2961 0.5000
vt 0.5997 0.2968 0.5000
vt 0.5954 0.2971 0.5000
vt 0.5991 0.2993 0.5000
vt 0.6451 0.4229 0.5000
vt 0.6452 0.4135 0.5000
vt 0.6933 0.3065 0.5000
vt 0.6893 0.3068 0.5000
vt 0.6904 0.3007 0.5000
vt 0.6875 0.3032 0.5000
vt 0.6884 0.2940 0.5000
vt 0.6852 0.2955 0.5000
vt 0.6873 0.2869 0.5000
vt 0.6840 0.2874 0.5000
vt 0.6873 0.2795 0.5000
vt 0.6840 0.2790 0.5000
vt 0.6884 0.2723 0.5000
vt 0.6852 0.2708 0.5000
vt 0.6904 0.2656 0.5000
vt 0.6875 0.2632 0.5000
vt 0.6933 0.2597 0.5000
vt 0.6909 0.2565 0.5000
vt 0.6971 0.2548 0.5000
vt 0.6951 0.2509 0.5000
vt 0.7014 0.2511 0.5000
vt 0.7001 0.2467 0.5000
vt 0.7062 0.2489 0.5000
vt 0.7055 0.2441 0.5000
vt 0.7112 0.2481 0.5000
vt 0.7112 0.2432 0.5000
vt 0.7161 0.2489 0.5000
vt 0.7146 0.2437 0.5000
vt 0.7170 0.2492 0.5000
vt 0.7155 0.2435 0.5000
vt 0.7702 0.1205 0.5000
vt 0.7644 0.1253 0.5000
vt 0.6649 0.1205 0.5000
vt 0.6670 0.1253 0.5000
vt 0.6631 0.1262 0.5000
vt 0.6660 0.1286 0.5000
vt 0.6602 0.1321 0.5000
vt 0.6626 0.1354 0.5000
vt 0.6564 0.1370 0.5000
vt 0.6584 0.1410 0.5000
vt 0.6521 0.1407 0.5000
vt 0.6535 0.1451 0.5000
vt 0.6473 0.1430 0.5000
vt 0.6480 0.1477 0.5000
vt 0.6424 0.1437 0.5000
vt 0.6424 0.1486 0.5000
vt 0.6374 0.1430 0.5000
vt 0.6367 0.1477 0.5000
vt 0.6326 0.1407 0.5000
vt 0.6313 0.1451 0.5000
vt 0.6283 0.1370 0.5000
vt 0.6263 0.1410 0.5000
vt 0.6245 0.1321 0.5000
vt 0.6221 0.1354 0.5000
vt 0.6216 0.1262 0.5000
vt 0.6187 0.1286 0.5000
vt 0.9622 0.9642 1.0000
vt 0.0532 0.9600 1.0000
vt 0.0530 0.9277 1.0000
vt 0.9625 0.9304 1.0000
vt 0.0536 0.9005 1.0000
vt 0.0541 0.8668 1.0000
vt 0.9603 0.8669 1.0000
vt 0.9604 0.9017 1.0000
vt 0.3045 0.3163 0.2500
vt 0.2506 0.4594 0.2500
vt 0.1903 0.3064 0.2500
vt 0.1912 0.3052 0.2500
vt 0.3011 0.3093 0.2500
vt 0.1945 0.2979 0.2500
vt 0.2986 0.3011 0.2500
vt 0.1968 0.2897 0.2500
vt 0.2973 0.2924 0.2500
vt 0.1979 0.2809 0.2500
vt 0.2971 0.2834 0.2500
vt 0.1977 0.2719 0.2500
vt 0.2982 0.2746 0.2500
vt 0.1964 0.2632 0.2500
vt 0.3005 0.2664 0.2500
vt 0.1939 0.2550 0.2500
vt 0.3038 0.2591 0.2500
vt 0.2423 0.1182 0.2500
vt 0.1624 0.2355 0.2500
vt 0.1057 0.0916 0.2500
vt 0.2156 0.0901 0.2500
vt 0.1636 0.2349 0.2500
vt 0.1694 0.2339 0.2500
vt 0.2178 0.0971 0.2500
vt 0.2213 0.1043 0.2500
vt 0.1752 0.2348 0.2500
vt 0.2257 0.1103 0.2500
vt 0.1808 0.2375 0.2500
vt 0.2309 0.1147 0.2500
vt 0.1859 0.2419 0.2500
vt 0.2364 0.1174 0.2500
vt 0.1903 0.2478 0.2500
vt 0.2481 0.1172 0.2500
vt 0.3080 0.2531 0.2500
vt 0.2536 0.1144 0.2500
vt 0.3130 0.2485 0.2500
vt 0.2586 0.1098 0.2500
vt 0.3185 0.2457 0.2500
vt 0.2628 0.1037 0.2500
vt 0.3243 0.2446 0.2500
vt 0.2661 0.0964 0.2500
vt 0.2680 0.0894 0.2500
vt 0.3301 0.2455 0.2500
vt 0.3311 0.2460 0.2500
vt 0.3908 0.0877 0.2500
vt 0.2179 0.0974 -0.2500
vt 0.2157 0.0906 -0.2500
vt 0.1058 0.0928 -0.2500
vt 0.2214 0.1044 -0.2500
vt 0.2259 0.1102 -0.2500
vt 0.2310 0.1144 -0.2500
vt 0.2366 0.1170 -0.2500
vt 0.1864 0.2392 -0.2500
vt 0.1628 0.2331 -0.2500
vt 0.1640 0.2325 -0.2500
vt 0.1698 0.2315 -0.2500
vt 0.1756 0.2323 -0.2500
vt 0.1812 0.2349 -0.2500
vt 0.2424 0.1178 -0.2500
vt 0.2482 0.1168 -0.2500
vt 0.2537 0.1140 -0.2500
vt 0.2587 0.1095 -0.2500
vt 0.1951 0.2939 -0.2500
vt 0.1918 0.3011 -0.2500
vt 0.1909 0.3023 -0.2500
vt 0.3010 0.2624 -0.2500
vt 0.2515 0.4515 -0.2500
vt 0.3052 0.3112 -0.2500
vt 0.3017 0.3043 -0.2500
vt 0.2992 0.2964 -0.2500
vt 0.2978 0.2878 -0.2500
vt 0.2977 0.2791 -0.2500
vt 0.2987 0.2704 -0.2500
vt 0.1973 0.2859 -0.2500
vt 0.1984 0.2773 -0.2500
vt 0.1982 0.2685 -0.2500
vt 0.1969 0.2599 -0.2500
vt 0.1944 0.2520 -0.2500
vt 0.1908 0.2450 -0.2500
vt 0.2629 0.1035 -0.2500
vt 0.2662 0.0964 -0.2500
vt 0.3043 0.2552 -0.2500
vt 0.3085 0.2493 -0.2500
vt 0.3135 0.2448 -0.2500
vt 0.3190 0.2420 -0.2500
vt 0.3248 0.2409 -0.2500
vt 0.3316 0.2422 -0.2500
vt 0.3306 0.2417 -0.2500
vt 0.2681 0.0895 -0.2500
vt 0.3909 0.0870 -0.2500
vt 0.9663 0.6307 1.0000
vt 0.0466 0.6228 1.0000
vt 0.0466 0.5906 1.0000
vt 0.9662 0.5946 1.0000
vt 0.9656 0.5672 1.0000
vt 0.0466 0.5609 1.0000
vt 0.0465 0.5243 1.0000
vt 0.9659 0.5301 1.0000
vt 0.9611 0.7696 1.0000
vt 0.9614 0.8048 1.0000
vt 0.0468 0.7986 1.0000
vt 0.0467 0.7646 1.0000
vt 0.0461 0.7357 1.0000
vt 0.0454 0.7044 1.0000
vt 0.9614 0.7091 1.0000
vt 0.9615 0.7432 1.0000
# 379 texture coords

g Cylinder001
usemtl 03___Default
s 16
f 1/1/1 2/2/2 3/3/2 4/4/1 
f 3/3/2 2/2/2 5/5/3 6/6/3 
f 5/5/3 7/7/4 8/8/4 6/6/3 
f 7/7/4 9/9/5 10/10/5 8/8/4 
f 10/10/5 9/9/5 11/11/6 12/12/6 
f 11/11/6 13/13/7 14/14/7 12/12/6 
f 14/14/7 13/13/7 15/15/8 16/16/8 
f 16/16/8 15/15/8 17/17/9 18/18/9 
f 17/17/9 19/19/10 20/20/10 18/18/9 
f 20/20/10 19/19/10 21/21/11 22/22/11 
f 21/21/11 23/23/12 24/24/12 22/22/11 
f 24/24/12 23/23/12 25/25/13 26/26/13 
f 27/27/14 28/28/15 29/29/15 30/30/14 
f 28/28/15 31/31/16 32/32/16 29/29/15 
f 32/32/16 31/31/16 33/33/17 34/34/17 
f 34/34/17 33/33/17 35/35/18 36/36/18 
f 35/35/18 37/37/19 38/38/19 36/36/18 
f 37/37/19 39/39/20 40/40/20 38/38/19 
f 39/39/20 41/41/21 42/42/21 40/40/20 
f 42/42/21 41/41/21 43/43/22 44/44/22 
f 43/43/22 45/45/23 46/46/23 44/44/22 
f 46/46/23 45/45/23 47/47/24 48/48/24 
f 47/49/24 49/50/25 50/51/25 48/48/24 
f 50/51/25 49/50/25 51/52/12 52/53/12 
f 53/54/26 52/53/12 51/52/12 54/55/26 
f 55/56/3 56/57/3 57/58/27 58/59/27 
f 55/56/3 59/60/2 60/61/2 56/57/3 
f 60/61/2 59/60/2 61/62/28 62/63/28 
f 62/63/28 61/62/28 63/64/29 64/65/29 
f 64/65/29 63/64/29 65/66/30 66/67/30 
f 65/66/30 67/68/31 68/69/31 66/67/30 
f 68/69/31 67/68/31 69/70/32 70/71/32 
f 69/70/32 71/72/33 72/73/33 70/71/32 
f 71/72/33 73/74/34 74/75/34 72/73/33 
f 73/74/34 75/76/35 76/77/35 74/75/34 
f 75/76/35 77/78/15 78/79/15 76/77/35 
f 78/79/15 77/78/15 79/80/16 80/81/16 
f 80/81/16 79/80/16 81/82/17 82/83/17 
f 83/84/36 82/83/17 81/82/17 84/85/36 
s off
f 53/86/37 85/87/37 86/88/37 87/89/37 
f 85/87/38 57/90/38 88/91/38 86/88/38 
f 57/90/39 56/92/39 89/93/39 88/91/39 
f 56/92/39 60/94/39 90/95/39 89/93/39 
f 60/94/39 62/96/39 91/97/39 90/95/39 
f 62/96/39 64/98/39 92/99/39 91/97/39 
f 64/98/39 66/100/39 93/101/39 92/99/39 
f 66/100/39 68/102/39 94/103/39 93/101/39 
f 68/102/39 70/104/39 95/105/39 94/103/39 
f 70/104/39 72/106/39 96/107/39 95/105/39 
f 72/106/39 74/108/39 97/109/39 96/107/39 
f 74/108/39 76/110/39 98/111/39 97/109/39 
f 76/110/39 78/112/39 99/113/39 98/111/39 
f 78/112/39 80/114/39 100/115/39 99/113/39 
f 80/114/39 82/116/39 101/117/39 100/115/39 
f 82/116/39 83/118/39 102/119/39 101/117/39 
f 83/118/40 103/120/40 104/121/40 102/119/40 
f 103/120/41 25/122/41 105/123/41 104/121/41 
f 25/122/39 23/124/39 106/125/39 105/123/39 
f 23/124/39 21/126/39 107/127/39 106/125/39 
f 21/126/39 19/128/39 108/129/39 107/127/39 
f 19/128/39 17/130/39 109/131/39 108/129/39 
f 17/130/39 15/132/39 110/133/39 109/131/39 
f 15/132/39 13/134/39 111/135/39 110/133/39 
f 13/134/39 11/136/39 112/137/39 111/135/39 
f 11/136/39 9/138/39 113/139/39 112/137/39 
f 9/138/39 7/140/39 114/141/39 113/139/39 
f 7/140/39 5/142/39 115/143/39 114/141/39 
f 5/142/39 2/144/39 116/145/39 115/143/39 
f 2/144/39 1/146/39 117/147/39 116/145/39 
f 1/146/41 118/148/41 119/149/41 117/147/41 
f 118/148/37 30/150/37 120/151/37 119/149/37 
f 30/150/39 29/152/39 121/153/39 120/151/39 
f 29/152/39 32/154/39 122/155/39 121/153/39 
f 32/154/39 34/156/39 123/157/39 122/155/39 
f 34/156/39 36/158/39 124/159/39 123/157/39 
f 36/158/39 38/160/39 125/161/39 124/159/39 
f 38/160/39 40/162/39 126/163/39 125/161/39 
f 40/162/39 42/164/39 127/165/39 126/163/39 
f 42/164/39 44/166/39 128/167/39 127/165/39 
f 44/166/39 46/168/39 129/169/39 128/167/39 
f 46/168/39 48/170/39 130/171/39 129/169/39 
f 48/170/39 50/172/39 131/173/39 130/171/39 
f 50/172/39 52/174/39 132/175/39 131/173/39 
f 52/174/39 53/86/39 87/89/39 132/175/39 
f 26/176/42 133/177/42 134/178/42 135/179/42 
f 133/177/42 84/180/42 136/181/42 134/178/42 
f 84/180/42 81/182/42 137/183/42 136/181/42 
f 81/182/42 79/184/42 138/185/42 137/183/42 
f 79/184/42 77/186/42 139/187/42 138/185/42 
f 77/186/42 75/188/42 140/189/42 139/187/42 
f 75/188/42 73/190/42 141/191/42 140/189/42 
f 73/190/42 71/192/42 142/193/42 141/191/42 
f 71/192/42 69/194/42 143/195/42 142/193/42 
f 69/194/42 67/196/42 144/197/42 143/195/42 
f 67/196/42 65/198/42 145/199/42 144/197/42 
f 65/198/42 63/200/42 146/201/42 145/199/42 
f 63/200/42 61/202/42 147/203/42 146/201/42 
f 61/202/42 59/204/42 148/205/42 147/203/42 
f 59/204/42 55/206/42 149/207/42 148/205/42 
f 55/206/42 58/208/42 150/209/42 149/207/42 
f 58/208/42 151/210/42 152/211/42 150/209/42 
f 151/210/42 54/212/42 153/213/42 152/211/42 
f 54/212/42 51/214/42 154/215/42 153/213/42 
f 51/214/42 49/216/42 155/217/42 154/215/42 
f 49/216/42 47/218/42 156/219/42 155/217/42 
f 47/218/42 45/220/42 157/221/42 156/219/42 
f 45/220/42 43/222/42 158/223/42 157/221/42 
f 43/222/42 41/224/42 159/225/42 158/223/42 
f 41/224/42 39/226/42 160/227/42 159/225/42 
f 39/226/42 37/228/42 161/229/42 160/227/42 
f 37/228/42 35/230/42 162/231/42 161/229/42 
f 35/230/42 33/232/42 163/233/42 162/231/42 
f 33/232/42 31/234/42 164/235/42 163/233/42 
f 31/234/42 28/236/42 165/237/42 164/235/42 
f 28/236/42 27/238/42 166/239/42 165/237/42 
f 27/238/42 167/240/42 168/241/42 166/239/42 
f 167/240/42 4/242/42 169/243/42 168/241/42 
f 4/242/42 3/244/42 170/245/42 169/243/42 
f 3/244/42 6/246/42 171/247/42 170/245/42 
f 6/246/42 8/248/42 172/249/42 171/247/42 
f 8/248/42 10/250/42 173/251/42 172/249/42 
f 10/250/42 12/252/42 174/253/42 173/251/42 
f 12/252/42 14/254/42 175/255/42 174/253/42 
f 14/254/42 16/256/42 176/257/42 175/255/42 
f 16/256/42 18/258/42 177/259/42 176/257/42 
f 18/258/42 20/260/42 178/261/42 177/259/42 
f 20/260/42 22/262/42 179/263/42 178/261/42 
f 22/262/42 24/264/42 180/265/42 179/263/42 
f 24/264/42 26/176/42 135/179/42 180/265/42 
f 26/266/7 25/267/7 103/268/7 133/269/7 
f 118/270/7 1/271/7 4/272/7 167/273/7 
s 1
f 87/274/39 86/275/39 88/276/39 89/277/39 
f 132/278/39 87/274/39 89/277/39 90/279/39 
f 131/280/39 132/278/39 90/279/39 91/281/39 
f 130/282/39 131/280/39 91/281/39 92/283/39 
f 129/284/39 130/282/39 92/283/39 93/285/39 
f 128/286/39 129/284/39 93/285/39 94/287/39 
f 127/288/39 128/286/39 94/287/39 95/289/39 
f 126/290/39 127/288/39 95/289/39 111/291/39 
f 102/292/39 104/293/39 105/294/39 101/295/39 
f 100/296/39 101/295/39 105/294/39 106/297/39 
f 100/296/39 106/297/39 107/298/39 99/299/39 
f 99/299/39 107/298/39 108/300/39 98/301/39 
f 98/301/39 108/300/39 109/302/39 97/303/39 
f 97/303/39 109/302/39 110/304/39 96/305/39 
f 96/305/39 110/304/39 111/291/39 95/289/39 
f 126/290/39 111/291/39 112/306/39 125/307/39 
f 125/307/39 112/306/39 113/308/39 124/309/39 
f 124/309/39 113/308/39 114/310/39 123/311/39 
f 123/311/39 114/310/39 115/312/39 122/313/39 
f 122/313/39 115/312/39 116/314/39 117/315/39 
f 121/316/39 122/313/39 117/315/39 120/317/39 
f 120/317/39 117/315/39 119/318/39 
f 180/319/42 135/320/42 134/321/42 179/322/42 
f 178/323/42 179/322/42 134/321/42 177/324/42 
f 176/325/42 177/324/42 134/321/42 141/326/42 
f 136/327/42 137/328/42 138/329/42 134/321/42 
f 134/321/42 138/329/42 139/330/42 140/331/42 
f 134/321/42 140/331/42 141/326/42 
f 175/332/42 176/325/42 141/326/42 174/333/42 
f 173/334/42 174/333/42 141/326/42 172/335/42 
f 148/336/42 149/337/42 150/338/42 159/339/42 
f 150/338/42 152/340/42 153/341/42 154/342/42 
f 150/338/42 154/342/42 155/343/42 156/344/42 
f 150/338/42 156/344/42 157/345/42 158/346/42 
f 150/338/42 158/346/42 159/339/42 
f 147/347/42 148/336/42 159/339/42 146/348/42 
f 145/349/42 146/348/42 159/339/42 144/350/42 
f 143/351/42 144/350/42 159/339/42 142/352/42 
f 141/326/42 142/352/42 159/339/42 172/335/42 
f 171/353/42 172/335/42 159/339/42 170/354/42 
f 170/354/42 159/339/42 160/355/42 161/356/42 
f 170/354/42 161/356/42 162/357/42 163/358/42 
f 170/354/42 163/358/42 164/359/42 166/360/42 
f 164/359/42 165/361/42 166/360/42 
f 169/362/42 170/354/42 166/360/42 168/363/42 
s off
f 133/364/43 103/365/43 83/366/43 84/367/43 
f 58/368/43 57/369/43 85/370/43 151/371/43 
f 54/372/44 151/373/44 85/374/44 53/375/44 
f 30/376/44 118/377/44 167/378/44 27/379/44 
# 176 polygons - 4 triangles

